<svg width="1024" height="1024" viewBox="0 0 1024 1024" fill="none" xmlns="http://www.w3.org/2000/svg">
  <defs>
    <linearGradient id="bg" x1="168" y1="128" x2="856" y2="896" gradientUnits="userSpaceOnUse">
      <stop stop-color="#0EA5E9"/>
      <stop offset="0.56" stop-color="#2563EB"/>
      <stop offset="1" stop-color="#1E3A8A"/>
    </linearGradient>
    <linearGradient id="needle" x1="400" y1="260" x2="636" y2="748" gradientUnits="userSpaceOnUse">
      <stop stop-color="#FFFFFF"/>
      <stop offset="1" stop-color="#DBEAFE"/>
    </linearGradient>
    <filter id="softShadow" x="160" y="150" width="704" height="724" filterUnits="userSpaceOnUse" color-interpolation-filters="sRGB">
      <feFlood flood-opacity="0" result="BackgroundImageFix"/>
      <feColorMatrix in="SourceAlpha" type="matrix" values="0 0 0 0 0 0 0 0 0 0 0 0 0 0 0 0 0 0 127 0" result="hardAlpha"/>
      <feOffset dy="28"/>
      <feGaussianBlur stdDeviation="24"/>
      <feColorMatrix type="matrix" values="0 0 0 0 0.02 0 0 0 0 0.07 0 0 0 0 0.18 0 0 0 0.24 0"/>
      <feBlend mode="normal" in2="BackgroundImageFix" result="effect1_dropShadow_1_1"/>
      <feBlend mode="normal" in="SourceGraphic" in2="effect1_dropShadow_1_1" result="shape"/>
    </filter>
  </defs>
  <rect x="72" y="72" width="880" height="880" rx="236" fill="#F8FAFC"/>
  <rect x="104" y="104" width="816" height="816" rx="204" fill="url(#bg)"/>
  <path d="M746 330C700 257 619 208 526 208C382 208 266 324 266 468C266 612 382 728 526 728C650 728 754 641 780 525" stroke="#BFDBFE" stroke-width="64" stroke-linecap="round"/>
  <path d="M526 272C418 272 330 360 330 468C330 576 418 664 526 664C615 664 690 605 714 524" stroke="#EFF6FF" stroke-width="22" stroke-linecap="round" opacity="0.72"/>
  <g filter="url(#softShadow)">
    <path d="M503 291C508 274 532 274 537 291L631 632C638 659 611 681 587 668L512 628L437 668C413 681 386 659 393 632L503 291Z" fill="url(#needle)"/>
    <path d="M512 342L572 584L512 552L452 584L512 342Z" fill="#2563EB" opacity="0.16"/>
  </g>
  <circle cx="512" cy="512" r="54" fill="#FFFFFF"/>
  <circle cx="512" cy="512" r="23" fill="#2563EB"/>
  <path d="M690 284L744 230" stroke="#FFFFFF" stroke-width="28" stroke-linecap="round"/>
  <path d="M772 374L838 346" stroke="#DBEAFE" stroke-width="28" stroke-linecap="round"/>
</svg>
